<svg id="ec1E0dF7NOo1" xmlns="http://www.w3.org/2000/svg" xmlns:xlink="http://www.w3.org/1999/xlink" viewBox="0 0 600 600" shape-rendering="geometricPrecision" text-rendering="geometricPrecision"><g transform="matrix(1.23954 0 0 1.23954-47.623397-45.662031)"><path d="M299.29381,100.66455c109.4464,0,198.17025,66.54288,198.17025,148.62768h-396.34049c0-82.0848,88.72384-148.62768,198.17025-148.62768h-.00001Z" transform="matrix(.925828 0 0 1.182225 61.904607 206.246909)" fill="#27272b" stroke-width="0"/><g transform="matrix(1 0 0 0.524219 0 238.350317)"><path d="M199.539709,399.797556L250.087332,99.373002h200.283036l49.593894,300.424554h-300.424553Z" transform="matrix(1.149831 0 0 0.996688-52.403689 102.493019)" fill="#27272b" stroke-width="1.2"/><path d="M235.154478,200.541891l15.041082-71.521313L300,200.541891h-64.845522Z" transform="translate(0 1.806751)" fill="#27272b" stroke-width="1.2"/><path d="M235.154478,200.541891l15.041082-71.521313L300,200.541891h-64.845522Z" transform="matrix(-1.028763-.013536-.013156 0.999913 710.45403 5.880171)" fill="#27272b" stroke-width="1.2"/></g><path d="" fill="none" stroke="#3f5787" stroke-width="1.2"/><path d="M216.968627,464.201593Q90.865396,502.784577,77.049446,445.218119c-13.81595-57.566458,55.248931-44.733254,66.762223-106.287862" transform="matrix(1.059308 0 0 1.059308-22.382563-14.329499)" fill="none" stroke="#27272b" stroke-width="35" stroke-linecap="round"/><path d="" fill="none" stroke="#3f5787" stroke-width="1.2"/><g transform="translate(20.940002 115.852408)"><ellipse rx="13.83605" ry="13.83605" transform="translate(409.180295 292.673648)" fill="#fff" stroke-width="0"/><ellipse rx="13.83605" ry="13.83605" transform="translate(292.89605 292.673648)" fill="#fff" stroke-width="0"/><path d="M184.939248,100.012678l15.259144,20.582102l14.90428-20.227238-30.163424-.354864Z" transform="translate(156.432595 228.402984)" fill="#fff" stroke-width="1.2"/><g transform="translate(0 22.589028)"><rect width="34.300675" height="22.833231" rx="0" ry="0" transform="translate(275.745712 256.004367)" fill="#27272b" stroke-width="0"/><rect width="34.300675" height="22.833231" rx="0" ry="0" transform="translate(392.029957 256.004367)" fill="#27272b" stroke-width="0"/></g></g></g></svg>
