<svg id="e91qoQuaHcU1" xmlns="http://www.w3.org/2000/svg" xmlns:xlink="http://www.w3.org/1999/xlink" viewBox="0 0 600 600" shape-rendering="geometricPrecision" text-rendering="geometricPrecision"><g transform="matrix(1.23954 0 0 1.23954-47.623407-37.588691)"><path d="M199.539709,399.797556L250.087332,99.373002h200.283036l49.593894,300.424554h-300.424553Z" transform="matrix(1.149831 0 0 1-52.403689 101.168889)" fill="#27272b" stroke-width="1.2"/><path d="M235.154478,200.541891l15.041082-71.521313L300,200.541891h-64.845522Z" transform="translate(0 1)" fill="#27272b" stroke-width="1.2"/><path d="M235.154478,200.541891l15.041082-71.521313L300,200.541891h-64.845522Z" transform="matrix(-1.08227 0 0 1 720.025245 1)" fill="#27272b" stroke-width="1.2"/><path d="" fill="none" stroke="#3f5787" stroke-width="1.2"/><path d="M216.968627,464.201593Q90.865396,502.784577,77.049446,445.218119c-13.81595-57.566458,54.785725-50.392911,66.299017-111.947519" transform="matrix(1.059308 0 0 1.059308-22.382564-14.3295)" fill="none" stroke="#27272b" stroke-width="35" stroke-linecap="round"/><path d="" fill="none" stroke="#3f5787" stroke-width="1.2"/><ellipse rx="13.83605" ry="13.83605" transform="translate(409.180295 292.673648)" fill="#d2dbed" stroke-width="0"/><ellipse rx="13.83605" ry="13.83605" transform="translate(409.180295 292.673648)" fill="#d2dbed" stroke-width="0"/><ellipse rx="13.83605" ry="13.83605" transform="translate(409.180295 292.673648)" fill="#fff" stroke-width="0"/><ellipse rx="13.83605" ry="13.83605" transform="translate(292.89605 292.673648)" fill="#fff" stroke-width="0"/><path d="M184.939248,100.012678l15.259144,20.582102l14.90428-20.227238-30.163424-.354864Z" transform="translate(156.432595 228.402984)" fill="#fff" stroke-width="1.2"/></g></svg>
